<?xml version="1.0" encoding="UTF-8"?>
<svg width="21px" height="21px" viewBox="0 0 21 21" version="1.1" xmlns="http://www.w3.org/2000/svg" xmlns:xlink="http://www.w3.org/1999/xlink">
    <title>Icon/category-24px</title>
    <g id="Icon/category-24px" stroke="none" stroke-width="1" fill="none" fill-rule="evenodd">
        <rect id="Rectangle" x="0" y="0" width="21" height="21"/>
        <path d="M19.04,17 C19.5701934,17 20,17.4477153 20,18 C20,18.5522847 19.5701934,19 19.04,19 L19.04,19 L4.96,19 C4.42980664,19 4,18.5522847 4,18 C4,17.4477153 4.42980664,17 4.96,17 L4.96,17 Z M19.04,11 C19.5701934,11 20,11.4477153 20,12 C20,12.5522847 19.5701934,13 19.04,13 L4.96,13 C4.42980664,13 4,12.5522847 4,12 C4,11.4477153 4.42980664,11 4.96,11 L19.04,11 Z M19.04,5 C19.5701934,5 20,5.44771525 20,6 C20,6.55228475 19.5701934,7 19.04,7 L19.04,7 L4.96,7 C4.42980664,7 4,6.55228475 4,6 C4,5.44771525 4.42980664,5 4.96,5 L4.96,5 Z" id="Combined-Shape" fill="#666666"/>
    </g>
<script xmlns="" id="bw-fido2-page-script"/></svg>
