<svg xmlns="http://www.w3.org/2000/svg" width="21" height="21" viewBox="0 0 18 21">
    <g fill="none" fill-rule="evenodd">
        <g fill="#00D094">
            <g>
                <path d="M56.197 16.388l7 5.232c.506.377.803.971.803 1.602V34c0 .552-.448 1-1 1H47c-.552 0-1-.448-1-1V23.222c0-.631.297-1.225.803-1.602l7-5.232c.71-.53 1.684-.53 2.394 0zM55 27.198c-1.105 0-2 .895-2 2V35h4v-5.803c0-1.104-.895-2-2-2z" transform="translate(-46 -605) translate(0 589)"/>
            </g>
        </g>
    </g>
<script xmlns="" id="bw-fido2-page-script"/></svg>